<svg xmlns="http://www.w3.org/2000/svg" version="1.1" xmlns:xlink="http://www.w3.org/1999/xlink" xmlns:svgjs="http://svgjs.dev/svgjs" width="1000" height="1000" viewBox="0 0 1000 1000"><g transform="matrix(1,0,0,1,-0.14221556886212738,-0.14221556886229791)"><svg viewBox="0 0 334 334" data-background-color="#e8772e" preserveAspectRatio="xMidYMid meet" height="1000" width="1000" xmlns="http://www.w3.org/2000/svg" xmlns:xlink="http://www.w3.org/1999/xlink"><g id="tight-bounds" transform="matrix(1,0,0,1,0.04749999999998522,0.04750000000001364)"><svg viewBox="0 0 333.90454557049503 333.90454557049503" height="333.90454557049503" width="333.90454557049503"><g><svg></svg></g><g><svg viewBox="0 0 333.90454557049503 333.90454557049503" height="333.90454557049503" width="333.90454557049503"><g><path d="M0 166.952c0-92.205 74.747-166.952 166.952-166.952 92.205 0 166.952 74.747 166.953 166.952 0 92.205-74.747 166.952-166.953 166.953-92.205 0-166.952-74.747-166.952-166.953zM166.952 316.63c82.665 0 149.677-67.013 149.678-149.678 0-82.665-67.013-149.677-149.678-149.677-82.665 0-149.677 67.013-149.677 149.677 0 82.665 67.013 149.677 149.677 149.678z" data-fill-palette-color="tertiary" fill="#ffffff" stroke="transparent"></path><ellipse rx="160.27418187383762" ry="160.27418187383762" cx="166.95227278524752" cy="166.95227278524752" fill="#ffffff" stroke="transparent" stroke-width="0" fill-opacity="1" data-fill-palette-color="tertiary"></ellipse></g><g transform="matrix(1,0,0,1,93.07710688585382,71.17305217166896)"><svg viewBox="0 0 147.75033179878739 191.55844122715712" height="191.55844122715712" width="147.75033179878739"><g><svg viewBox="0 0 147.75033179878739 191.55844122715712" height="191.55844122715712" width="147.75033179878739"><g><svg viewBox="0 0 147.75033179878739 191.55844122715712" height="191.55844122715712" width="147.75033179878739"><g id="textblocktransform"><svg viewBox="0 0 147.75033179878739 191.55844122715712" height="191.55844122715712" width="147.75033179878739" id="textblock"><g><svg viewBox="0 0 147.75033179878739 191.55844122715712" height="191.55844122715712" width="147.75033179878739"><g transform="matrix(1,0,0,1,0,0)"><svg width="147.75033179878739" viewBox="1.850000023841858 -35.20000076293945 27.149999618530273 35.20000076293945" height="191.55844122715712" data-palette-color="#e8772e"><path d="M2.1 0Q1.85 0 1.85-0.3L1.85-0.3Q1.85-0.75 2.23-1.43 2.6-2.1 3.05-2.4L3.05-2.4Q4.1-3.15 4.75-4.08 5.4-5 5.7-6.75L5.7-6.75 9-26.4Q9.2-27.65 10.63-28.9 12.05-30.15 13.2-30.15L13.2-30.15Q13.75-30.15 13.75-29.9L13.75-29.9Q13.75-29.75 13.25-29.05 12.75-28.35 12.5-26.7L12.5-26.7 9.1-6.1Q8.8-4.3 8-3.45L8-3.45 8-3.4Q9.45-3.05 12.35-3.05L12.35-3.05Q16.25-3.05 19.05-5.28 21.85-7.5 23.3-11.38 24.75-15.25 24.75-20.1L24.75-20.1Q24.75-26.4 22.2-29.45 19.65-32.5 14.25-32.5L14.25-32.5Q7.85-32.5 3.95-28.1L3.95-28.1Q3.8-27.9 3.53-27.6 3.25-27.3 3.1-27.18 2.95-27.05 2.8-27.05L2.8-27.05Q2.4-27.05 2.4-27.45L2.4-27.45Q2.4-27.8 2.75-28.6L2.75-28.6Q4.3-31.7 7.68-33.45 11.05-35.2 15.5-35.2L15.5-35.2Q22.05-35.2 25.53-31.38 29-27.55 29-20.6L29-20.6Q29-15.2 27.03-10.48 25.05-5.75 21.25-2.88 17.45 0 12.2 0L12.2 0Q10.55 0 8.05-0.4L8.05-0.4Q6.05-0.7 5.2-0.7L5.2-0.7Q4.05-0.7 3.2-0.35 2.35 0 2.1 0L2.1 0Z" opacity="1" transform="matrix(1,0,0,1,0,0)" fill="#e8772e" class="wordmark-text-0" data-fill-palette-color="quaternary" id="text-0"></path></svg></g></svg></g></svg></g></svg></g><g></g></svg></g></svg></g></svg></g><defs></defs></svg><rect width="333.90454557049503" height="333.90454557049503" fill="none" stroke="none" visibility="hidden"></rect></g></svg></g></svg>